<svg xmlns="http://www.w3.org/2000/svg" xmlns:xlink="http://www.w3.org/1999/xlink" version="1.1" width="164" height="50" viewBox="0 0 851 315" xml:space="preserve">
<desc>Created with Fabric.js 3.5.0</desc>
<defs>
</defs>
<rect x="0" y="0" width="100%" height="100%" fill="rgba(255,255,255,0)"/>
<g transform="matrix(0.8127 0 0 0.8127 136.6849 160.3199)" id="262124">
<rect style="stroke: none; stroke-width: 0; stroke-dasharray: none; stroke-linecap: butt; stroke-dashoffset: 0; stroke-linejoin: miter; stroke-miterlimit: 4; is-custom-font: none; font-file-url: none; fill: rgb(255,137,6); fill-rule: nonzero; opacity: 1;" x="-166.665" y="-166.665" rx="13.333" ry="13.333" width="333.33" height="333.33"/>
</g>
<g transform="matrix(0.8127 0 0 0.8127 136.6859 158.4239)" id="843037">
<path style="stroke: none; stroke-width: 0; stroke-dasharray: none; stroke-linecap: butt; stroke-dashoffset: 0; stroke-linejoin: miter; stroke-miterlimit: 4; is-custom-font: none; font-file-url: none; fill: rgb(255,255,255); fill-rule: nonzero; opacity: 1;" transform=" translate(-345.8565, -368.08)" d="m 402.69 293.08 v 150 h -17.422 v -70.681 h -78.794 v 70.681 h -17.451 v -150 h 17.451 v 63.911 h 78.794 v -63.911 h 17.422 z" stroke-linecap="round"/>
</g>
<g transform="matrix(0.8127 0 0 0.8127 579.3427 158.422)" id="361527">
<path style="stroke: none; stroke-width: 0; stroke-dasharray: none; stroke-linecap: butt; stroke-dashoffset: 0; stroke-linejoin: miter; stroke-miterlimit: 4; is-custom-font: none; font-file-url: none; fill: rgb(255,137,6); fill-rule: nonzero; opacity: 1;" transform=" translate(-925.0917, -368.0776)" d="m 704.76 297.41 v 143.71 h -16.692 v -67.717 h -75.489 v 67.717 h -16.719 v -143.71 h 16.719 v 61.23 h 75.489 v -61.23 h 16.692 z m 37.074 35.983 h 16.3 v 107.73 h -16.3 v -107.73 z m 8.3597 -40.317 q 4.0261 0 6.9338 2.6281 q 2.8798 2.6002 2.8798 8.1081 q 0 5.3961 -2.8798 8.0522 q -2.9077 2.6561 -6.9338 2.6561 q -4.2498 0 -7.0457 -2.6561 q -2.7959 -2.6561 -2.7959 -8.0522 q 0 -5.5079 2.7959 -8.1081 q 2.7959 -2.6281 7.0457 -2.6281 z m 91.398 38.36 q 3.2432 0 6.794 0.33551 q 3.5228 0.33551 6.2908 0.92265 l -2.069 15.154 q -2.6561 -0.69897 -5.8993 -1.0904 q -3.2432 -0.39143 -6.0951 -0.39143 q -6.4865 0 -12.246 2.6002 q -5.7316 2.6002 -10.065 7.4651 q -4.3336 4.8649 -6.794 11.715 q -2.4324 6.822 -2.4324 15.182 v 57.791 h -16.44 v -107.73 h 13.588 l 1.7614 19.851 h 0.67102 q 3.3551 -5.9832 8.0801 -10.96 q 4.6971 -4.9767 10.96 -7.9124 q 6.2349 -2.9357 13.896 -2.9357 z m 74.818 0 q 13.756 0 23.569 6.0951 q 9.8416 6.0671 15.042 17.027 q 5.2283 10.96 5.2283 25.61 v 10.121 h -74.427 q 0.30755 18.984 9.4501 28.91 q 9.1426 9.9254 25.75 9.9254 q 10.205 0 18.089 -1.8733 q 7.8565 -1.8733 16.3 -5.5079 v 14.371 q -8.164 3.6347 -16.16 5.3122 q -8.0242 1.6496 -18.928 1.6496 q -15.517 0 -27.064 -6.3187 q -11.547 -6.3467 -17.95 -18.649 q -6.3747 -12.274 -6.3747 -30.056 q 0 -17.418 5.8434 -30.14 q 5.8434 -12.721 16.496 -19.599 q 10.68 -6.8779 25.135 -6.8779 z m -0.19571 13.364 q -13.085 0 -20.857 8.5555 q -7.7446 8.5275 -9.2265 23.877 h 57.008 q -0.11184 -9.6459 -2.9916 -16.971 q -2.9077 -7.3253 -8.8071 -11.379 q -5.8993 -4.082 -15.126 -4.082 z m 151.06 96.319 h -13.672 l -48.257 -127.19 h -0.78285 q 0.39143 4.0261 0.69897 9.8136 q 0.27959 5.8155 0.4753 12.637 q 0.19571 6.822 0.19571 13.924 v 90.811 h -15.517 v -143.71 h 24.772 l 45.517 119.52 h 0.67102 l 46.188 -119.52 h 24.576 v 143.71 h -16.496 v -92.013 q 0 -6.3747 0.19571 -12.805 q 0.19571 -6.4585 0.4753 -12.19 q 0.30755 -5.7596 0.58714 -9.9814 h -0.78285 l -48.844 126.99 z m 143.21 -109.68 q 13.784 0 23.597 6.0951 q 9.8416 6.0671 15.042 17.027 q 5.2004 10.96 5.2004 25.61 v 10.121 h -74.399 q 0.30755 18.984 9.4222 28.91 q 9.1426 9.9254 25.778 9.9254 q 10.205 0 18.062 -1.8733 q 7.8844 -1.8733 16.328 -5.5079 v 14.371 q -8.164 3.6347 -16.16 5.3122 q -8.0242 1.6496 -18.928 1.6496 q -15.545 0 -27.092 -6.3187 q -11.547 -6.3467 -17.922 -18.649 q -6.4026 -12.274 -6.4026 -30.056 q 0 -17.418 5.8434 -30.14 q 5.8714 -12.721 16.524 -19.599 q 10.68 -6.8779 25.107 -6.8779 z m -0.19571 13.364 q -13.057 0 -20.829 8.5555 q -7.7726 8.5275 -9.2265 23.877 h 57.008 q -0.11184 -9.6459 -3.0196 -16.971 q -2.8798 -7.3253 -8.7791 -11.379 q -5.8993 -4.082 -15.154 -4.082 z" stroke-linecap="round"/>
</g>
</svg>